<svg width="25" height="30" viewBox="0 0 25 30" fill="none" xmlns="http://www.w3.org/2000/svg">
<path d="M18.5805 0C18.6499 0 18.7193 0 18.7927 0C18.963 2.11566 18.16 3.69648 17.1841 4.84126C16.2265 5.97813 14.9153 7.08075 12.7945 6.91345C12.6531 4.82809 13.4574 3.36451 14.4319 2.22237C15.3358 1.15795 16.9928 0.210776 18.5805 0Z" fill="black"/>
<path d="M25.0004 22.0208C25.0004 22.0419 25.0004 22.0603 25.0004 22.0801C24.4044 23.8954 23.5543 25.4512 22.5168 26.895C21.5697 28.2058 20.4091 29.9697 18.3368 29.9697C16.5462 29.9697 15.3568 28.8118 13.5215 28.7801C11.5802 28.7485 10.5126 29.7484 8.73769 30C8.53465 30 8.33161 30 8.1325 30C6.82913 29.8103 5.77725 28.7722 5.01095 27.8369C2.75132 25.0731 1.00519 21.5031 0.680326 16.9345C0.680326 16.4866 0.680326 16.04 0.680326 15.5921C0.817869 12.3225 2.39764 9.66407 4.49746 8.37571C5.60565 7.69069 7.1291 7.1071 8.82545 7.36793C9.55246 7.48123 10.2952 7.73152 10.9462 7.97918C11.5632 8.21763 12.3348 8.64049 13.0657 8.6181C13.5608 8.60361 14.0534 8.34409 14.5525 8.16098C16.0143 7.63009 17.4474 7.02147 19.3363 7.30734C21.6064 7.65248 23.2176 8.66684 24.2132 10.2319C22.2928 11.4609 20.7746 13.3131 21.034 16.4761C21.2645 19.3492 22.9255 21.0302 25.0004 22.0208Z" fill="black"/>
</svg>
