<svg width="40" height="40" viewBox="0 0 40 40" fill="none" xmlns="http://www.w3.org/2000/svg">
<path d="M2.02431 17.7357L2.00031 17.778H6.00023V37.7778C6.00023 38.3672 6.21094 38.9324 6.586 39.3491C6.96107 39.7659 7.46976 40 8.00019 40H31.9997C32.5301 40 33.0388 39.7659 33.4139 39.3491C33.789 38.9324 33.9997 38.3672 33.9997 37.7778V17.778H37.9996C38.4289 17.7781 38.8468 17.6247 39.1915 17.3406C39.5363 17.0564 39.7896 16.6565 39.9141 16.2001C40.0386 15.7436 40.0275 15.2547 39.8826 14.8057C39.7378 14.3568 39.4667 13.9715 39.1096 13.7069L21.1099 0.373663C20.7813 0.130023 20.395 0 19.9999 0C19.6049 0 19.2186 0.130023 18.89 0.373663L0.890328 13.7069C0.671787 13.8688 0.484097 14.077 0.337978 14.3196C0.191859 14.5621 0.0901735 14.8343 0.0387291 15.1205C-0.0127153 15.4067 -0.0129108 15.7014 0.0381536 15.9877C0.089218 16.274 0.190542 16.5463 0.336339 16.7891C0.52301 17.0922 0.775663 17.338 1.07079 17.5035C1.36592 17.6691 1.69393 17.7489 2.02431 17.7357ZM16 24.4446C16 23.8552 16.2107 23.29 16.5858 22.8732C16.9609 22.4565 17.4696 22.2224 18 22.2224H21.9999C22.5303 22.2224 23.039 22.4565 23.4141 22.8732C23.7892 23.29 23.9999 23.8552 23.9999 24.4446V35.5556H16V24.4446Z" fill="#151515"/>
</svg>
