<svg width="46" height="37" viewBox="0 0 46 37" fill="none" xmlns="http://www.w3.org/2000/svg">
<path d="M37.0801 0H9.48242C4.68359 0 0.78125 3.14146 0.78125 7.00461V14.4054V29.2354C0.78125 33.0985 4.68359 36.24 9.48242 36.24H37.0801C41.8789 36.24 45.7812 33.0985 45.7812 29.2354V14.3913V6.99046C45.7637 3.14146 41.8613 0 37.0801 0ZM39.5762 4.17446H40.5781V4.96691V10.3159L32.9668 10.33L32.9492 4.18862L39.5762 4.17446ZM16.8477 14.3913C18.2891 12.7923 20.627 11.7309 23.2637 11.7309C25.9004 11.7309 28.2383 12.7781 29.6797 14.3913C30.6289 15.4384 31.1738 16.7262 31.1738 18.1129C31.1738 21.6223 27.623 24.4949 23.2461 24.4949C18.8691 24.4949 15.3535 21.6223 15.3535 18.1129C15.3535 16.7262 15.916 15.4384 16.8477 14.3913ZM41.3867 29.2212C41.3867 31.1316 39.4531 32.6882 37.0801 32.6882H9.48242C7.10938 32.6882 5.17578 31.1316 5.17578 29.2212V14.3913H11.8906C11.3105 15.5375 10.9766 16.7969 10.9766 18.1129C10.9766 23.5751 16.4961 28.0184 23.2812 28.0184C30.0664 28.0184 35.5859 23.5751 35.5859 18.1129C35.5859 16.7969 35.252 15.5375 34.6719 14.3913H41.3867V29.2212Z" fill="#10C62D"/>
</svg>
