<svg width="40" height="40" viewBox="0 0 40 40" fill="none" xmlns="http://www.w3.org/2000/svg">
<path d="M37.982 16H34.84C34.4245 15.9913 34.0212 15.8581 33.6822 15.6178C33.3431 15.3775 33.0839 15.0411 32.938 14.652L32.928 14.626C32.7587 14.2476 32.7063 13.8272 32.7776 13.4188C32.8488 13.0105 33.0405 12.6327 33.328 12.334L35.548 10.114C35.9266 9.73521 36.1393 9.22156 36.1393 8.686C36.1393 8.15044 35.9266 7.6368 35.548 7.258L32.748 4.458C32.3692 4.07939 31.8556 3.86671 31.32 3.86671C30.7844 3.86671 30.2708 4.07939 29.892 4.458L27.672 6.678C27.3733 6.96549 26.9955 7.15717 26.5872 7.22844C26.1788 7.29971 25.7584 7.24732 25.38 7.078H25.354C24.9611 6.93171 24.6216 6.6701 24.38 6.32747C24.1383 5.98485 24.0059 5.57721 24 5.158V2.018C24 1.48279 23.7874 0.969507 23.4089 0.591059C23.0305 0.21261 22.5172 0 21.982 0H18.018C17.4828 0 16.9695 0.21261 16.5911 0.591059C16.2126 0.969507 16 1.48279 16 2.018V5.158C15.9914 5.57375 15.8583 5.97738 15.6181 6.31677C15.3778 6.65617 15.0413 6.91575 14.652 7.062H14.626C14.2476 7.23132 13.8272 7.28371 13.4188 7.21244C13.0105 7.14117 12.6327 6.94949 12.334 6.662L10.114 4.442C9.73521 4.06339 9.22156 3.85071 8.686 3.85071C8.15044 3.85071 7.6368 4.06339 7.258 4.442L4.458 7.242C4.07939 7.62079 3.86671 8.13444 3.86671 8.67C3.86671 9.20556 4.07939 9.7192 4.458 10.098L6.678 12.318C6.96549 12.6167 7.15717 12.9945 7.22844 13.4028C7.29971 13.8112 7.24732 14.2316 7.078 14.61V14.636C6.93368 15.0306 6.67313 15.3722 6.33072 15.6157C5.98831 15.8592 5.58012 15.9932 5.16 16H2.018C1.48279 16 0.969507 16.2126 0.591059 16.5911C0.21261 16.9695 0 17.4828 0 18.018V21.982C0 22.5172 0.21261 23.0305 0.591059 23.4089C0.969507 23.7874 1.48279 24 2.018 24H5.16C5.57548 24.0087 5.97879 24.1419 6.31784 24.3822C6.65689 24.6225 6.9161 24.9589 7.062 25.348V25.374C7.23132 25.7524 7.28371 26.1728 7.21244 26.5812C7.14117 26.9895 6.94949 27.3673 6.662 27.666L4.442 29.886C4.06339 30.2648 3.85071 30.7784 3.85071 31.314C3.85071 31.8496 4.06339 32.3632 4.442 32.742L7.242 35.542C7.62079 35.9206 8.13444 36.1333 8.67 36.1333C9.20556 36.1333 9.7192 35.9206 10.098 35.542L12.318 33.322C12.6167 33.0345 12.9945 32.8428 13.4028 32.7716C13.8112 32.7003 14.2316 32.7527 14.61 32.922L14.636 32.932C15.029 33.0757 15.3695 33.3347 15.6129 33.6752C15.8563 34.0156 15.9912 34.4216 16 34.84V37.982C16 38.5172 16.2126 39.0305 16.5911 39.4089C16.9695 39.7874 17.4828 40 18.018 40H21.982C22.247 40 22.5094 39.9478 22.7543 39.8464C22.9991 39.745 23.2216 39.5963 23.4089 39.4089C23.5963 39.2216 23.745 38.9991 23.8464 38.7543C23.9478 38.5094 24 38.247 24 37.982V34.84C24.0087 34.4245 24.1419 34.0212 24.3822 33.6822C24.6225 33.3431 24.9589 33.0839 25.348 32.938L25.374 32.928C25.7524 32.7587 26.1728 32.7063 26.5812 32.7776C26.9895 32.8488 27.3673 33.0405 27.666 33.328L29.886 35.548C30.2648 35.9266 30.7784 36.1393 31.314 36.1393C31.8496 36.1393 32.3632 35.9266 32.742 35.548L35.542 32.748C35.9206 32.3692 36.1333 31.8556 36.1333 31.32C36.1333 30.7844 35.9206 30.2708 35.542 29.892L33.322 27.672C33.0345 27.3733 32.8428 26.9955 32.7716 26.5872C32.7003 26.1788 32.7527 25.7584 32.922 25.38L32.932 25.354C33.0773 24.9628 33.337 24.6245 33.6773 24.383C34.0177 24.1415 34.4228 24.008 34.84 24H37.982C38.5172 24 39.0305 23.7874 39.4089 23.4089C39.7874 23.0305 40 22.5172 40 21.982V18.018C40 17.753 39.9478 17.4906 39.8464 17.2457C39.745 17.0009 39.5963 16.7784 39.4089 16.5911C39.2216 16.4037 38.9991 16.255 38.7543 16.1536C38.5094 16.0522 38.247 16 37.982 16ZM20 26C18.8133 26 17.6533 25.6481 16.6666 24.9888C15.6799 24.3295 14.9108 23.3925 14.4567 22.2961C14.0026 21.1997 13.8838 19.9933 14.1153 18.8295C14.3468 17.6656 14.9182 16.5965 15.7574 15.7574C16.5965 14.9182 17.6656 14.3468 18.8295 14.1153C19.9933 13.8838 21.1997 14.0026 22.2961 14.4567C23.3925 14.9108 24.3295 15.6799 24.9888 16.6666C25.6481 17.6533 26 18.8133 26 20C26 21.5913 25.3679 23.1174 24.2426 24.2426C23.1174 25.3679 21.5913 26 20 26Z" fill="#151515"/>
</svg>
