<svg width="45" height="37" viewBox="0 0 45 37" fill="none" xmlns="http://www.w3.org/2000/svg">
<path fill-rule="evenodd" clip-rule="evenodd" d="M36.4883 1.25962C34.2068 -1.14973 29.3661 0.128277 29.3661 3.13995V6.16404C21.9857 6.0937 16.937 8.13644 13.5741 10.9892C9.97902 14.0387 8.50035 17.8513 7.88072 20.4583C7.57093 21.7616 8.63271 22.7073 9.7486 23.0339C10.8146 23.3458 12.2391 23.2122 13.1897 22.3372C15.8878 19.8541 21.1296 16.3884 29.3661 16.6146V20.4909C29.3661 23.5025 34.2068 24.7805 36.4883 22.3711L43.8131 14.6359C45.3957 12.9645 45.3957 10.6663 43.8131 8.99491L36.4883 1.25962ZM12.6823 18.2894C16.2142 15.8076 21.2841 13.4785 29.3661 13.4785H31.345C32.4377 13.4785 33.3234 14.1801 33.3234 15.0455L33.323 20.4909L40.6476 12.7555C41.1753 12.1984 41.1753 11.4324 40.6476 10.8752L33.323 3.13995V7.73101C33.323 8.59641 32.4373 9.29794 31.3446 9.29794H29.3661C20.4639 9.29794 16.4661 13.1279 16.4661 13.1279C14.6256 14.6892 13.4411 16.5447 12.6823 18.2894Z" fill="#10C62D"/>
<path d="M11.7391 1.58154H5.86957C2.62791 1.58154 0 3.6975 0 6.30769V31.5138C0 34.1241 2.62791 36.24 5.86957 36.24H37.174C40.4157 36.24 43.0435 34.1241 43.0435 31.5138V26.7877C43.0435 25.9176 42.1676 25.2123 41.087 25.2123C40.0064 25.2123 39.1305 25.9176 39.1305 26.7877V31.5138C39.1305 32.3839 38.2545 33.0892 37.174 33.0892H5.86957C4.78902 33.0892 3.91305 32.3839 3.91305 31.5138V6.30769C3.91305 5.43762 4.78902 4.73231 5.86957 4.73231H11.7391C12.8197 4.73231 13.6957 4.02697 13.6957 3.15692C13.6957 2.28685 12.8197 1.58154 11.7391 1.58154Z" fill="#10C62D"/>
</svg>
