<svg width="50" height="41" viewBox="0 0 50 41" fill="none" xmlns="http://www.w3.org/2000/svg">
<path d="M25.2812 27.368V12.872" stroke="#2ACB44" stroke-width="3.75" stroke-linecap="round"/>
<path d="M16.2812 23.744V16.496" stroke="#2ACB44" stroke-width="3.75" stroke-linecap="round"/>
<path d="M34.2812 23.744V16.496" stroke="#2ACB44" stroke-width="3.75" stroke-linecap="round"/>
<path d="M36.5312 4.42413C33.2217 2.88239 29.3794 2 25.2812 2C12.8548 2 2.78125 10.1126 2.78125 20.12C2.78125 23.0187 3.62639 25.7582 5.12903 28.1879C5.52836 28.8335 5.66127 29.5716 5.42977 30.2683L4.08965 34.302C3.50789 36.0529 5.49702 37.6547 7.67129 37.1863L12.6799 36.1071C13.5451 35.9206 14.4615 36.0277 15.2632 36.3492C18.2801 37.5594 21.6819 38.24 25.2812 38.24C37.7075 38.24 47.7812 30.1273 47.7812 20.12C47.7812 16.8196 46.6855 13.7252 44.7712 11.06" stroke="#2ACB44" stroke-width="3.75" stroke-linecap="round"/>
</svg>
