<svg width="50" height="41" viewBox="0 0 50 41" fill="none" xmlns="http://www.w3.org/2000/svg">
<path d="M37.2812 20.12C37.2812 21.3098 36.958 22.4879 36.3298 23.5871C35.7015 24.6862 34.7807 25.685 33.62 26.5263C32.4592 27.3676 31.0812 28.035 29.5647 28.4904C28.0482 28.9457 26.4227 29.18 24.7812 29.18C23.1398 29.18 21.5143 28.9457 19.9978 28.4904C18.4811 28.035 17.1031 27.3676 15.9424 26.5263C14.7817 25.685 13.8609 24.6862 13.2327 23.5871C12.6046 22.4879 12.2812 21.3098 12.2812 20.12C12.2812 18.9302 12.6046 17.7521 13.2327 16.6529C13.8609 15.5537 14.7817 14.5549 15.9424 13.7136C17.1031 12.8723 18.4812 12.205 19.9978 11.7496C21.5143 11.2943 23.1398 11.06 24.7812 11.06C26.4227 11.06 28.0482 11.2943 29.5647 11.7496C31.0812 12.205 32.4592 12.8723 33.62 13.7136C34.7807 14.5549 35.7015 15.5537 36.3298 16.6529C36.958 17.7521 37.2812 18.9302 37.2812 20.12Z" stroke="#10C62D" stroke-width="3.75"/>
<path d="M29.4008 23.5871C29.652 22.4879 29.7812 21.3098 29.7812 20.12C29.7812 18.9302 29.652 17.7521 29.4008 16.6529C29.1493 15.5537 28.781 14.5549 28.3167 13.7136C27.8525 12.8723 27.3012 12.205 26.6947 11.7496C26.088 11.2943 25.4378 11.06 24.7812 11.06C24.1247 11.06 23.4745 11.2943 22.8678 11.7496C22.2613 12.205 21.71 12.8723 21.2458 13.7136C20.7815 14.5549 20.4132 15.5537 20.1617 16.6529C19.9105 17.7521 19.7812 18.9302 19.7812 20.12C19.7812 21.3098 19.9105 22.4879 20.1617 23.5871C20.413 24.6862 20.7815 25.685 21.2458 26.5263C21.71 27.3676 22.2613 28.035 22.8678 28.4904C23.4745 28.9457 24.1247 29.18 24.7812 29.18C25.4378 29.18 26.088 28.9457 26.6947 28.4904C27.3012 28.035 27.8525 27.3676 28.3167 26.5263C28.781 25.685 29.1493 24.6862 29.4008 23.5871Z" stroke="#10C62D" stroke-width="3.75"/>
<path d="M12.2812 20.12H37.2812" stroke="#10C62D" stroke-width="3.75" stroke-linecap="round"/>
<path d="M2.28125 17.2511C2.28125 11.457 2.28125 8.55995 3.22505 7.58533C4.16883 6.61071 7.92705 5.67829 15.4435 3.81343L16.8755 3.45815C20.7937 2.48605 22.7528 2 24.7812 2C26.8097 2 28.7688 2.48605 32.687 3.45815L34.119 3.81343C41.6355 5.67829 45.3937 6.61071 46.3375 7.58533C47.2812 8.55995 47.2812 11.457 47.2812 17.2511C47.2812 18.1261 47.2812 19.0752 47.2812 20.1044C47.2812 24.6433 45.1893 28.1443 42.2812 30.8182M2.76335 23.744C4.9069 31.5327 13.7223 35.5454 19.5276 37.3835C21.3312 37.9544 22.233 38.24 24.7812 38.24C27.3295 38.24 28.2313 37.9544 30.0348 37.3835C31.4803 36.9258 33.1123 36.3334 34.7812 35.5814" stroke="#10C62D" stroke-width="3.75" stroke-linecap="round"/>
</svg>
