<svg width="60" height="60" viewBox="0 0 60 60" fill="none" xmlns="http://www.w3.org/2000/svg">
<path d="M29.9999 0C13.4326 0 0 13.4326 0 30C0 40.2029 5.09568 49.2151 12.8793 54.635C12.9123 54.52 12.9492 54.4075 12.9843 54.2942C13.0065 54.2229 13.0273 54.1509 13.0502 54.0801C13.1286 53.8377 13.2111 53.5977 13.2995 53.3613C13.3041 53.3486 13.3098 53.3362 13.3144 53.3237C13.3984 53.1006 13.4873 52.8804 13.58 52.6624C13.6086 52.5955 13.6386 52.5295 13.6679 52.4631C13.8472 52.0552 14.0434 51.6549 14.2558 51.2632C14.2856 51.2083 14.3142 51.1528 14.3444 51.0984C14.5851 50.6658 14.8456 50.2444 15.1249 49.8357C15.1623 49.781 15.2011 49.7275 15.239 49.6733C15.3865 49.4636 15.5387 49.2571 15.6955 49.0542C15.7541 48.9785 15.8124 48.9031 15.8722 48.8286L15.8827 28.8237H15.8867C15.8823 28.6809 15.8759 28.5388 15.8759 28.3948C15.8759 27.7961 15.9174 27.2075 15.9897 26.6284C15.9977 26.5591 16.007 26.4905 16.016 26.4214C16.0302 26.3196 16.0449 26.218 16.0612 26.1167C16.4513 23.5769 17.5339 21.2959 19.0844 19.4314C21.675 16.2803 25.6027 14.27 30.0001 14.27C35.9933 13.8618 44.6436 19.5088 44.1453 28.8237C44.1431 28.825 44.1407 28.8262 44.1387 28.8276L44.1487 48.8425C44.2127 48.9221 44.2745 49.0032 44.3367 49.084C44.3663 49.1218 44.3953 49.1604 44.4244 49.1985C44.5573 49.374 44.6866 49.5522 44.8123 49.7329C44.8292 49.7573 44.8467 49.7813 44.8636 49.8057C45.1579 50.2346 45.4314 50.6774 45.6832 51.1326L45.7034 51.1702C45.8368 51.413 45.9639 51.6593 46.0845 51.9087C46.1885 52.1228 46.2884 52.3396 46.3836 52.5591L46.408 52.6145C46.6199 53.1084 46.8081 53.612 46.972 54.1238C46.9776 54.1409 46.9827 54.1587 46.9881 54.176C47.0357 54.3267 47.0843 54.4771 47.128 54.6301C47.126 54.6314 47.1241 54.6326 47.1226 54.634C54.9053 49.2141 60 40.2026 60 30.0005C59.9998 13.4324 46.5674 0 29.9999 0Z" fill="#F5A854"/>
<path d="M16.1604 48.48C16.3194 48.2926 16.4828 48.1089 16.6504 47.9292L16.6606 47.9187C16.8225 47.7465 16.9881 47.5779 17.1575 47.4131C17.2117 47.3599 17.2673 47.3084 17.3223 47.2561C17.5072 47.0803 17.6962 46.9089 17.8892 46.7419C17.9055 46.7278 17.9214 46.7131 17.938 46.699V46.7012C19.3606 45.4817 21.008 44.4971 22.8379 43.7847C22.9582 43.738 23.0788 43.6917 23.2007 43.6472C23.3198 43.6038 23.4397 43.5613 23.5603 43.52C23.6823 43.4785 23.8059 43.4387 23.9294 43.3994C24.0495 43.3611 24.1692 43.3225 24.2907 43.2864C24.4392 43.2424 24.5896 43.2019 24.74 43.1614C24.9157 43.1143 25.0925 43.0691 25.271 43.0264C25.427 42.9893 25.5832 42.9519 25.7412 42.9182C25.8588 42.8931 25.9777 42.8709 26.0966 42.8479C26.3592 42.7966 26.6227 42.7507 26.8872 42.7105C27.0485 42.6859 27.2101 42.6633 27.372 42.6428C27.476 42.6294 27.5793 42.6152 27.684 42.6033C27.9528 42.5725 28.2221 42.5468 28.4919 42.5261H30.0107V42.5193L30.0004 42.5195C22.3437 42.5195 16.1143 36.4258 15.8867 28.8237H15.8828L15.8723 48.8286C15.927 48.7607 15.9834 48.6943 16.0391 48.6274C16.0793 48.5781 16.1191 48.5283 16.1604 48.48Z" fill="#B0C21E"/>
<path d="M29.9938 14.2837L29.9999 14.2698C25.6023 14.2698 21.6745 16.2798 19.0842 19.4312C21.7451 16.2319 25.7719 14.2546 29.9938 14.2837ZM16.0156 26.4209C16.0291 26.3188 16.0454 26.2175 16.0608 26.1162C16.0447 26.2175 16.0298 26.3191 16.0156 26.4209ZM29.9999 42.519L30.0102 42.5188C37.6559 42.5134 43.8764 36.4319 44.1134 28.842C40.3617 31.1433 30.5861 27.7712 27.6879 22.6377C23.6467 29.2871 19.6399 31.0654 15.9102 28.8164C15.8792 28.086 15.9058 27.3542 15.9895 26.6279C15.915 27.2138 15.877 27.8037 15.8757 28.3943C15.8757 28.5381 15.8823 28.6804 15.8865 28.8232C16.1138 36.4253 22.3432 42.519 29.9999 42.519Z" fill="#FCE9EA"/>
<path d="M29.9997 14.2837C30.3525 16.7058 29.5015 19.5156 27.6885 22.6367L27.6877 22.6379C30.5859 27.7715 40.3615 31.1436 44.1132 28.8423C43.8762 36.4321 37.656 42.5134 30.01 42.5191V42.5259H31.5222C31.7934 42.5462 32.062 42.5728 32.3288 42.603C32.4343 42.615 32.5383 42.6294 32.643 42.6428C32.8042 42.6636 32.9643 42.6856 33.1238 42.7097C33.2439 42.728 33.3633 42.7476 33.4824 42.7678C33.626 42.7927 33.7685 42.8191 33.9106 42.8467C34.0317 42.8701 34.1531 42.8928 34.2732 42.9187C34.4243 42.9509 34.5732 42.9866 34.7226 43.0222C34.9157 43.0681 35.1069 43.117 35.2971 43.1685C35.4372 43.2066 35.5779 43.2442 35.7168 43.2852C35.8425 43.3223 35.9663 43.3626 36.0905 43.4021C36.2092 43.44 36.3276 43.4783 36.4448 43.5181C36.5693 43.5608 36.6928 43.6045 36.8159 43.6492C36.9326 43.6919 37.0478 43.7361 37.163 43.781C38.9599 44.4795 40.581 45.4419 41.9863 46.6309V46.6248C42.0349 46.6658 42.0817 46.7092 42.1298 46.751C42.3271 46.9224 42.5205 47.0982 42.7099 47.2783C42.7531 47.3196 42.7966 47.3601 42.8393 47.4016C43.1972 47.7507 43.5387 48.1164 43.8625 48.4973C43.8859 48.5244 43.9084 48.5527 43.9313 48.5803C44.0043 48.6672 44.0776 48.7542 44.1486 48.8425L44.1386 28.8276L44.1452 28.8237C44.6435 19.5088 35.9929 13.8618 30 14.27L29.9939 14.2839L29.9997 14.2837Z" fill="#7EA701"/>
<path d="M41.9862 46.6309C40.5809 45.4419 38.9599 44.4795 37.163 43.781C37.2091 43.7988 37.255 43.8171 37.3009 43.8355V51.6885H22.5744V43.8887C22.6616 43.853 22.7497 43.8191 22.8376 43.7847C21.0078 44.4971 19.3603 45.4817 17.9377 46.7012V57.4736C21.6294 59.0967 25.7089 60 29.9999 60C34.7733 60 39.2851 58.8831 43.2916 56.8994C42.8613 57.111 42.426 57.3121 41.986 57.5027V46.6309H41.9862ZM46.9718 54.1233C46.9774 54.1404 46.9825 54.1582 46.9879 54.1755C46.9825 54.1582 46.9774 54.1406 46.9718 54.1233ZM15.1247 49.8355C15.1621 49.7808 15.2009 49.7273 15.2388 49.6731C15.2007 49.7271 15.1621 49.7808 15.1247 49.8355ZM13.2993 53.3611C13.304 53.3484 13.3096 53.3359 13.3142 53.3235C13.3096 53.3362 13.304 53.3484 13.2993 53.3611ZM12.9844 54.2939C13.0066 54.2227 13.0273 54.1506 13.0503 54.0798C13.0273 54.1509 13.0066 54.2227 12.9844 54.2939ZM14.2556 51.2627C14.2854 51.2078 14.314 51.1523 14.3442 51.0979C14.314 51.1523 14.2852 51.208 14.2556 51.2627ZM13.5801 52.6621C13.6086 52.5952 13.6387 52.5293 13.668 52.4629C13.6387 52.5293 13.6086 52.595 13.5801 52.6621ZM45.683 51.1323L45.7032 51.1699C45.6964 51.1577 45.6901 51.1448 45.683 51.1323ZM44.3365 49.084C44.3661 49.1218 44.3951 49.1604 44.4242 49.1985C44.3951 49.1602 44.3661 49.1218 44.3365 49.084ZM44.8121 49.7329C44.829 49.7573 44.8465 49.7813 44.8634 49.8057C44.8465 49.7813 44.829 49.7571 44.8121 49.7329ZM25.7412 42.9182C25.8586 42.8931 25.9777 42.8711 26.0966 42.8479C25.9777 42.8706 25.8588 42.8931 25.7412 42.9182ZM27.3718 42.6426C27.4758 42.6291 27.5793 42.615 27.6838 42.603C27.579 42.615 27.4755 42.6291 27.3718 42.6426ZM23.9292 43.3992C24.0493 43.3608 24.1689 43.3223 24.2905 43.2861C24.1691 43.3223 24.0495 43.3608 23.9292 43.3992ZM42.7098 47.2781C42.7531 47.3193 42.7965 47.3599 42.8392 47.4014C42.7965 47.3599 42.7528 47.3193 42.7098 47.2781ZM32.329 42.603C32.4345 42.615 32.5385 42.6294 32.6432 42.6428C32.5387 42.6294 32.4345 42.615 32.329 42.603ZM35.7167 43.2852C35.8424 43.3223 35.9662 43.3625 36.0905 43.4021C35.9665 43.3625 35.8424 43.3223 35.7167 43.2852ZM43.9315 48.5801C43.9083 48.5525 43.8859 48.5242 43.8627 48.4971C43.8859 48.5244 43.9083 48.5525 43.9315 48.5801ZM33.9108 42.8469C34.0319 42.8706 34.1532 42.8931 34.2734 42.9189C34.1532 42.8931 34.0319 42.8701 33.9108 42.8469Z" fill="#F08519"/>
<path d="M36.4447 43.5181C36.3275 43.4783 36.2091 43.4402 36.0905 43.4021C35.9662 43.3625 35.8422 43.3223 35.7167 43.2852C35.578 43.2441 35.4372 43.2068 35.297 43.1685C35.1063 43.1168 34.9148 43.068 34.7226 43.0222C34.5732 42.9859 34.4233 42.9514 34.2731 42.9187C34.153 42.8931 34.0316 42.8704 33.9106 42.8467C33.6492 42.7958 33.3869 42.7501 33.1237 42.7097C32.9645 42.6853 32.8041 42.6636 32.643 42.6428C32.5382 42.6294 32.4342 42.615 32.3288 42.603C32.0604 42.5721 31.7915 42.5464 31.5221 42.5259H28.4911C28.2214 42.5465 27.9521 42.5723 27.6833 42.603C27.5788 42.615 27.4753 42.6291 27.3713 42.6426C27.0907 42.6784 26.8108 42.72 26.5319 42.7673C26.3863 42.7926 26.2409 42.8193 26.0959 42.8477C25.9772 42.8708 25.8581 42.8931 25.7404 42.918C25.4048 42.9912 25.071 43.0723 24.7392 43.1611C24.5888 43.2017 24.4384 43.2422 24.29 43.2861C24.1684 43.322 24.0488 43.3608 23.9287 43.3992C23.8051 43.4385 23.6816 43.4783 23.5595 43.5198C23.4389 43.561 23.319 43.6035 23.1999 43.647C23.0781 43.6916 22.9575 43.7378 22.8371 43.7844C22.7492 43.8188 22.6611 43.8528 22.5739 43.8884V51.6882H37.3004V43.8352L37.1625 43.7808C37.0472 43.7356 36.9315 43.6917 36.8153 43.6489C36.6922 43.6041 36.5687 43.5605 36.4447 43.5181ZM29.9997 49.7576C29.7629 49.7576 29.5357 49.6635 29.3683 49.496C29.2008 49.3286 29.1067 49.1014 29.1067 48.8646C29.1067 48.6278 29.2008 48.4007 29.3683 48.2332C29.5357 48.0658 29.7629 47.9717 29.9997 47.9717C30.2365 47.9717 30.4636 48.0658 30.6311 48.2332C30.7985 48.4007 30.8926 48.6278 30.8926 48.8646C30.8926 49.1014 30.7985 49.3286 30.6311 49.496C30.4636 49.6635 30.2365 49.7576 29.9997 49.7576ZM29.9997 46.5259C29.7629 46.5259 29.5357 46.4318 29.3683 46.2643C29.2008 46.0969 29.1067 45.8698 29.1067 45.6329C29.1067 45.3961 29.2008 45.169 29.3683 45.0015C29.5357 44.8341 29.7629 44.74 29.9997 44.74C30.2365 44.74 30.4636 44.8341 30.6311 45.0015C30.7985 45.169 30.8926 45.3961 30.8926 45.6329C30.8926 45.8698 30.7985 46.0969 30.6311 46.2643C30.4636 46.4318 30.2365 46.5259 29.9997 46.5259ZM17.9375 46.7012V46.699L17.8887 46.7419C17.6957 46.9089 17.5067 47.0804 17.3218 47.2561C17.2668 47.3084 17.2112 47.3599 17.157 47.4131C16.9877 47.578 16.8221 47.7466 16.6601 47.9187L16.6499 47.9292C16.4823 48.1089 16.3189 48.2926 16.1599 48.48C16.1186 48.5283 16.0788 48.5781 16.0381 48.6272C15.9824 48.6941 15.9263 48.7605 15.8713 48.8284C15.8115 48.9028 15.7532 48.9783 15.6946 49.054C15.5376 49.2568 15.3854 49.4632 15.238 49.6731C15.2002 49.7273 15.1614 49.7808 15.124 49.8355C14.8446 50.2442 14.5842 50.6655 14.3435 51.0981C14.3132 51.1526 14.2844 51.208 14.2549 51.2629C14.129 51.4957 14.0085 51.7314 13.8936 51.9697C13.8154 52.1323 13.7402 52.2969 13.667 52.4629C13.6377 52.5293 13.6077 52.5952 13.5791 52.6621C13.4863 52.8801 13.3972 53.1003 13.3135 53.3235C13.3086 53.3362 13.3032 53.3486 13.2986 53.3611C13.2102 53.5988 13.1271 53.8385 13.0493 54.0798C13.0264 54.1506 13.0056 54.2227 12.9834 54.2939C12.9482 54.4075 12.9114 54.52 12.8784 54.6348L12.9556 54.6882C13.2131 54.8667 13.4736 55.0415 13.7371 55.2122C13.7644 55.2297 13.791 55.2481 13.8184 55.2656C14.0793 55.4336 14.3442 55.5955 14.6106 55.7551C14.9229 55.942 15.2386 56.1234 15.5574 56.2991C15.9922 56.5378 16.4326 56.7662 16.8782 56.9841C17.0937 57.0891 17.3108 57.1917 17.5293 57.2918C17.6643 57.3535 17.8003 57.4136 17.9365 57.4734V46.7012H17.9375ZM47.1275 54.6296C47.0836 54.4766 47.0353 54.3262 46.9877 54.1755C46.9823 54.1582 46.9772 54.1404 46.9715 54.1233C46.8077 53.6115 46.6195 53.1078 46.4076 52.614L46.3832 52.5586C46.2881 52.3397 46.1884 52.1228 46.0841 51.9082L46.0375 51.8123C45.9307 51.5956 45.8192 51.3814 45.703 51.1697L45.6827 51.1321C45.431 50.6769 45.1574 50.2341 44.8631 49.8052C44.8463 49.7808 44.8287 49.7568 44.8119 49.7324C44.6862 49.5516 44.5569 49.3735 44.4239 49.198C44.3949 49.1599 44.3658 49.1216 44.3363 49.0835C44.274 49.0027 44.2123 48.9216 44.1483 48.842C44.0773 48.7537 44.004 48.6667 43.931 48.5798C43.9078 48.5522 43.8854 48.5239 43.8622 48.4968C43.5384 48.1158 43.197 47.7502 42.839 47.4011C42.7963 47.3596 42.7526 47.3191 42.7096 47.2778C42.5203 47.0976 42.3269 46.9218 42.1295 46.7505C42.0814 46.7087 42.0345 46.6653 41.986 46.6243V57.502C42.4301 57.3096 42.8695 57.1065 43.3038 56.8928C44.6306 56.2347 45.907 55.4793 47.1224 54.6331L47.1275 54.6296Z" fill="#FEFEFE"/>
<path d="M29.1067 45.633C29.1067 45.7503 29.1297 45.8664 29.1746 45.9748C29.2194 46.0831 29.2852 46.1816 29.3681 46.2645C29.451 46.3474 29.5495 46.4132 29.6578 46.4581C29.7661 46.503 29.8822 46.5261 29.9995 46.5261C30.1168 46.5261 30.2329 46.503 30.3412 46.4581C30.4496 46.4132 30.548 46.3474 30.6309 46.2645C30.7138 46.1816 30.7796 46.0831 30.8244 45.9748C30.8693 45.8664 30.8924 45.7503 30.8923 45.633C30.8924 45.5158 30.8693 45.3997 30.8244 45.2913C30.7796 45.183 30.7138 45.0845 30.6309 45.0016C30.548 44.9186 30.4496 44.8529 30.3412 44.808C30.2329 44.7631 30.1168 44.74 29.9995 44.74C29.8822 44.74 29.7661 44.7631 29.6578 44.808C29.5495 44.8529 29.451 44.9186 29.3681 45.0016C29.2852 45.0845 29.2194 45.183 29.1746 45.2913C29.1297 45.3997 29.1067 45.5158 29.1067 45.633Z" fill="#F08519"/>
<path d="M29.1067 48.865C29.1067 48.9823 29.1297 49.0984 29.1746 49.2067C29.2194 49.3151 29.2852 49.4135 29.3681 49.4965C29.451 49.5794 29.5495 49.6452 29.6578 49.6901C29.7661 49.735 29.8822 49.7581 29.9995 49.7581C30.1168 49.7581 30.2329 49.735 30.3412 49.6901C30.4496 49.6452 30.548 49.5794 30.6309 49.4965C30.7138 49.4135 30.7796 49.3151 30.8244 49.2067C30.8693 49.0984 30.8924 48.9823 30.8923 48.865C30.8924 48.7477 30.8693 48.6316 30.8244 48.5233C30.7796 48.4149 30.7138 48.3165 30.6309 48.2335C30.548 48.1506 30.4496 48.0848 30.3412 48.0399C30.2329 47.9951 30.1168 47.972 29.9995 47.972C29.8822 47.972 29.7661 47.9951 29.6578 48.0399C29.5495 48.0848 29.451 48.1506 29.3681 48.2335C29.2852 48.3165 29.2194 48.4149 29.1746 48.5233C29.1297 48.6316 29.1067 48.7477 29.1067 48.865Z" fill="#F08519"/>
<path d="M15.91 28.8164C19.6397 31.0652 23.6466 29.2871 27.6878 22.6377L27.6885 22.6365C29.5015 19.5154 30.3528 16.7058 29.9998 14.2835H29.9937C25.7718 14.2544 21.745 16.2315 19.0841 19.4307C17.5333 21.2952 16.451 23.5762 16.0609 26.116C16.0455 26.2173 16.0292 26.3184 16.0157 26.4207C16.0067 26.4895 15.9974 26.5584 15.9894 26.6277C15.9055 27.3541 15.879 28.0859 15.91 28.8164Z" fill="#B0C21E"/>
</svg>
