<svg width="26" height="27" viewBox="0 0 26 27" fill="none" xmlns="http://www.w3.org/2000/svg">
<path d="M25.4817 11.6124L25.3347 11.041H13.1887V16.1998H20.4535C20.0481 17.7741 19.1266 19.1668 17.8361 20.1553C16.5457 21.1437 14.961 21.6709 13.3357 21.6524C11.2147 21.635 9.17688 20.8256 7.62182 19.3832C6.85739 18.6298 6.24908 17.7329 5.83168 16.7441C5.41429 15.7553 5.19602 14.6938 5.18938 13.6204C5.21404 11.4647 6.06754 9.40106 7.57286 7.85764C9.10597 6.40528 11.1422 5.60361 13.2541 5.62108C15.0627 5.635 16.8041 6.30836 18.1516 7.51481L21.7432 3.8253C19.376 1.7134 16.3121 0.550588 13.1398 0.560253C11.3946 0.549886 9.66462 0.883346 8.04837 1.54161C6.43214 2.19986 4.96138 3.17002 3.7201 4.39669C1.35897 6.8492 0.027774 10.1135 0.000429209 13.5177C-0.0268993 16.922 1.25173 20.2072 3.57318 22.6973C4.85935 23.9786 6.38801 24.991 8.06982 25.6748C9.75163 26.3588 11.5528 26.7007 13.3683 26.6806C15.0146 26.6929 16.6463 26.3708 18.1645 25.7338C19.6826 25.0967 21.0556 24.1582 22.2003 22.9748C24.4465 20.5049 25.6616 17.2686 25.5959 13.9306C25.6136 13.1561 25.5754 12.3815 25.4817 11.6124Z" fill="black"/>
</svg>
